<svg width="1608" height="680" xmlns="http://www.w3.org/2000/svg" xmlns:xlink="http://www.w3.org/1999/xlink" xml:space="preserve" overflow="hidden"><defs><clipPath id="clip0"><rect x="1157" y="572" width="1608" height="680"/></clipPath></defs><g clip-path="url(#clip0)" transform="translate(-1157 -572)"><rect x="1157" y="727" width="421" height="57.0001" fill="#00E9FE"/><path d="M1538 751C1538 717.863 1565.31 691 1599 691 1632.69 691 1660 717.863 1660 751 1660 784.137 1632.69 811 1599 811 1565.31 811 1538 784.137 1538 751Z" fill="#00E9FE" fill-rule="evenodd"/><rect x="1157" y="769" width="67" height="403" fill="#00E9FE"/><rect x="1157" y="1172" width="421" height="57.0001" fill="#00E9FE"/><rect x="1549" y="1147" width="100" height="105" fill="#00E9FE"/><rect x="1722" y="1172" width="420" height="57.0001" fill="#FE8F00"/><rect x="1722" y="769" width="67" height="403" fill="#FE8F00"/><path d="M1694 751C1694 717.863 1721.31 691 1755 691 1788.69 691 1816 717.863 1816 751 1816 784.137 1788.69 811 1755 811 1721.31 811 1694 784.137 1694 751Z" fill="#FE8F00" fill-rule="evenodd"/><rect x="2128" y="663" width="66.9998" height="566" fill="#FE8F00"/><path d="M2101 691 2162 572 2223 691Z" fill="#FE8F00" fill-rule="evenodd"/><rect x="2295" y="722" width="421" height="58.0001" fill="#ED18DB"/><rect x="2283" y="722" width="67" height="450" fill="#ED18DB"/><path d="M2256 1192C2256 1158.86 2283.31 1132 2317 1132 2350.69 1132 2378 1158.86 2378 1192 2378 1225.14 2350.69 1252 2317 1252 2283.31 1252 2256 1225.14 2256 1192Z" fill="#ED18DB" fill-rule="evenodd"/><rect x="2666" y="703" width="99" height="105" fill="#ED18DB"/></g></svg>